ffmpeg started on 2025-06-04 at 20:20:30
Report written to "D:\Convert\FFMetrics\reports\psnr_report-6.txt"
Log level: 32
Command line:
ffmpeg -hide_banner -nostdin -i "G:\\\xc0\xed\xe8\xec\xe5\\\xce\xed\xe3\xee\xe8\xed\xe3\xe8\\!_36_\xce\xf1\xe5\xed\xfc_2024\\DreamCast\\\xc3\xf0\xe8\xe1\xed\xee\xe9 \xf9\xe5\xed\xee\xea\\[DC] Kinoko Inu - 10_Telegram_HEVC.mkv" -i "G:\\\xc0\xed\xe8\xec\xe5\\\xce\xed\xe3\xee\xe8\xed\xe3\xe8\\!_36_\xce\xf1\xe5\xed\xfc_2024\\DreamCast\\\xc3\xf0\xe8\xe1\xed\xee\xe9 \xf9\xe5\xed\xee\xea\\[DC] Kinoko Inu - 10_Telegram.mp4" -lavfi "[0:v]settb=AVTB,setpts=PTS-STARTPTS,format=pix_fmts=yuv420p10,fps=24000/1001,scale=1920:1080:flags=bicubic[main];[1:v]settb=AVTB,setpts=PTS-STARTPTS,format=pix_fmts=yuv420p,fps=24000/1001,scale=1920:1080:flags=bicubic[ref];[main][ref]psnr=eof_action=endall:stats_file='D\\:/Convert/FFMetrics/logs/psnr_logfile-6.txt'" -f null -
Input #0, matroska,webm, from 'G:\Аниме\Онгоинги\!_36_Осень_2024\DreamCast\Грибной щенок\[DC] Kinoko Inu - 10_Telegram_HEVC.mkv':
  Metadata:
    COMPATIBLE_BRANDS: isomiso2avc1mp41
    MAJOR_BRAND     : isom
    MINOR_VERSION   : 512
    ENCODER         : Lavf61.7.100
  Duration: 00:23:51.68, start: -0.021000, bitrate: 720 kb/s
  Stream #0:0: Video: hevc (Main 10), yuv420p10le(tv, bt709, progressive), 1920x1080 [SAR 1:1 DAR 16:9], 23.98 fps, 23.98 tbr, 1k tbn (default)
      Metadata:
        HANDLER_NAME    : VideoHandler
        VENDOR_ID       : [0][0][0][0]
        ENCODER         : Lavc61.19.100 libx265
        BPS             : 523775
        DURATION        : 00:23:51.554708333
        NUMBER_OF_FRAMES: 34323
        NUMBER_OF_BYTES : 93726659
        _STATISTICS_WRITING_APP: mkvpropedit v66.0.0 ('Josie') 64-bit
        _STATISTICS_WRITING_DATE_UTC: 2025-05-30 11:03:37
        _STATISTICS_TAGS: BPS DURATION NUMBER_OF_FRAMES NUMBER_OF_BYTES
  Stream #0:1: Audio: aac (LC), 48000 Hz, stereo, fltp (default)
      Metadata:
        HANDLER_NAME    : SoundHandler
        VENDOR_ID       : [0][0][0][0]
        ENCODER         : Lavc61.19.100 aac
        BPS             : 192792
        DURATION        : 00:23:51.680000000
        NUMBER_OF_FRAMES: 67111
        NUMBER_OF_BYTES : 34502161
        _STATISTICS_WRITING_APP: mkvpropedit v66.0.0 ('Josie') 64-bit
        _STATISTICS_WRITING_DATE_UTC: 2025-05-30 11:03:37
        _STATISTICS_TAGS: BPS DURATION NUMBER_OF_FRAMES NUMBER_OF_BYTES
Input #1, mov,mp4,m4a,3gp,3g2,mj2, from 'G:\Аниме\Онгоинги\!_36_Осень_2024\DreamCast\Грибной щенок\[DC] Kinoko Inu - 10_Telegram.mp4':
  Metadata:
    major_brand     : isom
    minor_version   : 512
    compatible_brands: isomiso2avc1mp41
    encoder         : Lavf61.1.100
  Duration: 00:23:51.62, start: 0.000000, bitrate: 3683 kb/s
  Stream #1:0[0x1](und): Video: h264 (High) (avc1 / 0x31637661), yuv420p(tv, bt709, progressive), 1920x1080 [SAR 1:1 DAR 16:9], 3535 kb/s, 23.98 fps, 23.98 tbr, 24k tbn (default)
      Metadata:
        handler_name    : VideoHandler
        vendor_id       : [0][0][0][0]
        encoder         : Lavc61.3.100 h264_qsv
  Stream #1:1[0x2](und): Audio: aac (HE-AACv2) (mp4a / 0x6134706D), 48000 Hz, stereo, fltp, 144 kb/s (default)
      Metadata:
        handler_name    : SoundHandler
        vendor_id       : [0][0][0][0]
Stream mapping:
  Stream #0:0 (hevc) -> settb:default
  Stream #1:0 (h264) -> settb:default
  psnr:default -> Stream #0:0 (wrapped_avframe)
  Stream #0:1 -> #0:1 (aac (native) -> pcm_s16le (native))
Output #0, null, to 'pipe:':
  Metadata:
    COMPATIBLE_BRANDS: isomiso2avc1mp41
    MAJOR_BRAND     : isom
    MINOR_VERSION   : 512
    encoder         : Lavf61.7.100
  Stream #0:0: Video: wrapped_avframe, yuv420p10le(tv, bt709, progressive), 1920x1080 [SAR 1:1 DAR 16:9], q=2-31, 200 kb/s, 23.98 fps, 23.98 tbn
      Metadata:
        encoder         : Lavc61.19.100 wrapped_avframe
  Stream #0:1: Audio: pcm_s16le, 48000 Hz, stereo, s16, 1536 kb/s (default)
      Metadata:
        HANDLER_NAME    : SoundHandler
        VENDOR_ID       : [0][0][0][0]
        _STATISTICS_TAGS: BPS DURATION NUMBER_OF_FRAMES NUMBER_OF_BYTES
        BPS             : 192792
        DURATION        : 00:23:51.680000000
        NUMBER_OF_FRAMES: 67111
        NUMBER_OF_BYTES : 34502161
        _STATISTICS_WRITING_APP: mkvpropedit v66.0.0 ('Josie') 64-bit
        _STATISTICS_WRITING_DATE_UTC: 2025-05-30 11:03:37
        encoder         : Lavc61.19.100 pcm_s16le
frame=  165 fps=0.0 q=-0.0 size=N/A time=00:00:06.88 bitrate=N/A speed=13.3x    frame=  420 fps=404 q=-0.0 size=N/A time=00:00:17.51 bitrate=N/A speed=16.8x    frame=  699 fps=447 q=-0.0 size=N/A time=00:00:29.15 bitrate=N/A speed=18.6x    frame=  946 fps=457 q=-0.0 size=N/A time=00:00:39.45 bitrate=N/A speed=19.1x    frame= 1212 fps=467 q=-0.0 size=N/A time=00:00:50.55 bitrate=N/A speed=19.5x    frame= 1453 fps=468 q=-0.0 size=N/A time=00:01:00.60 bitrate=N/A speed=19.5x    frame= 1706 fps=470 q=-0.0 size=N/A time=00:01:11.15 bitrate=N/A speed=19.6x    frame= 1964 fps=475 q=-0.0 size=N/A time=00:01:21.91 bitrate=N/A speed=19.8x    frame= 2226 fps=479 q=-0.0 size=N/A time=00:01:32.84 bitrate=N/A speed=  20x    frame= 2500 fps=484 q=-0.0 size=N/A time=00:01:44.27 bitrate=N/A speed=20.2x    frame= 2758 fps=486 q=-0.0 size=N/A time=00:01:55.03 bitrate=N/A speed=20.3x    frame= 3022 fps=488 q=-0.0 size=N/A time=00:02:06.04 bitrate=N/A speed=20.3x    frame= 3251 fps=485 q=-0.0 size=N/A time=00:02:15.59 bitrate=N/A speed=20.2x    frame= 3442 fps=476 q=-0.0 size=N/A time=00:02:23.56 bitrate=N/A speed=19.9x    frame= 3659 fps=473 q=-0.0 size=N/A time=00:02:32.61 bitrate=N/A speed=19.7x    frame= 3889 fps=471 q=-0.0 size=N/A time=00:02:42.20 bitrate=N/A speed=19.6x    frame= 4102 fps=467 q=-0.0 size=N/A time=00:02:51.08 bitrate=N/A speed=19.5x    frame= 4314 fps=463 q=-0.0 size=N/A time=00:02:59.92 bitrate=N/A speed=19.3x    frame= 4550 fps=463 q=-0.0 size=N/A time=00:03:09.77 bitrate=N/A speed=19.3x    frame= 4782 fps=462 q=-0.0 size=N/A time=00:03:19.44 bitrate=N/A speed=19.3x    frame= 5007 fps=462 q=-0.0 size=N/A time=00:03:28.83 bitrate=N/A speed=19.3x    frame= 5289 fps=465 q=-0.0 size=N/A time=00:03:40.59 bitrate=N/A speed=19.4x    frame= 5560 fps=468 q=-0.0 size=N/A time=00:03:51.89 bitrate=N/A speed=19.5x    frame= 5843 fps=471 q=-0.0 size=N/A time=00:04:03.70 bitrate=N/A speed=19.7x    frame= 6118 fps=474 q=-0.0 size=N/A time=00:04:15.17 bitrate=N/A speed=19.8x    frame= 6385 fps=475 q=-0.0 size=N/A time=00:04:26.30 bitrate=N/A speed=19.8x    frame= 6633 fps=476 q=-0.0 size=N/A time=00:04:36.65 bitrate=N/A speed=19.8x    frame= 6912 fps=478 q=-0.0 size=N/A time=00:04:48.28 bitrate=N/A speed=19.9x    frame= 7180 fps=479 q=-0.0 size=N/A time=00:04:59.46 bitrate=N/A speed=  20x    frame= 7456 fps=481 q=-0.0 size=N/A time=00:05:10.97 bitrate=N/A speed=20.1x    frame= 7720 fps=482 q=-0.0 size=N/A time=00:05:21.98 bitrate=N/A speed=20.1x    frame= 7976 fps=482 q=-0.0 size=N/A time=00:05:32.66 bitrate=N/A speed=20.1x    frame= 8230 fps=483 q=-0.0 size=N/A time=00:05:43.25 bitrate=N/A speed=20.1x    frame= 8507 fps=484 q=-0.0 size=N/A time=00:05:54.81 bitrate=N/A speed=20.2x    frame= 8754 fps=485 q=-0.0 size=N/A time=00:06:05.11 bitrate=N/A speed=20.2x    frame= 8974 fps=483 q=-0.0 size=N/A time=00:06:14.29 bitrate=N/A speed=20.1x    frame= 9188 fps=481 q=-0.0 size=N/A time=00:06:23.21 bitrate=N/A speed=20.1x    frame= 9441 fps=481 q=-0.0 size=N/A time=00:06:33.76 bitrate=N/A speed=20.1x    frame= 9703 fps=482 q=-0.0 size=N/A time=00:06:44.69 bitrate=N/A speed=20.1x    frame= 9918 fps=480 q=-0.0 size=N/A time=00:06:53.66 bitrate=N/A speed=  20x    frame=10128 fps=479 q=-0.0 size=N/A time=00:07:02.42 bitrate=N/A speed=  20x    frame=10370 fps=478 q=-0.0 size=N/A time=00:07:12.51 bitrate=N/A speed=19.9x    frame=10605 fps=478 q=-0.0 size=N/A time=00:07:22.31 bitrate=N/A speed=19.9x    frame=10870 fps=479 q=-0.0 size=N/A time=00:07:33.36 bitrate=N/A speed=  20x    frame=11131 fps=479 q=-0.0 size=N/A time=00:07:44.25 bitrate=N/A speed=  20x    frame=11389 fps=480 q=-0.0 size=N/A time=00:07:55.01 bitrate=N/A speed=  20x    frame=11650 fps=480 q=-0.0 size=N/A time=00:08:05.90 bitrate=N/A speed=  20x    frame=11911 fps=481 q=-0.0 size=N/A time=00:08:16.78 bitrate=N/A speed=  20x    frame=12173 fps=481 q=-0.0 size=N/A time=00:08:27.71 bitrate=N/A speed=20.1x    frame=12435 fps=482 q=-0.0 size=N/A time=00:08:38.64 bitrate=N/A speed=20.1x    frame=12696 fps=482 q=-0.0 size=N/A time=00:08:49.52 bitrate=N/A speed=20.1x    frame=12971 fps=483 q=-0.0 size=N/A time=00:09:00.99 bitrate=N/A speed=20.2x    frame=13251 fps=484 q=-0.0 size=N/A time=00:09:12.67 bitrate=N/A speed=20.2x    frame=13505 fps=484 q=-0.0 size=N/A time=00:09:23.27 bitrate=N/A speed=20.2x    frame=13742 fps=484 q=-0.0 size=N/A time=00:09:33.15 bitrate=N/A speed=20.2x    frame=14016 fps=485 q=-0.0 size=N/A time=00:09:44.58 bitrate=N/A speed=20.2x    frame=14265 fps=485 q=-0.0 size=N/A time=00:09:54.96 bitrate=N/A speed=20.2x    frame=14531 fps=485 q=-0.0 size=N/A time=00:10:06.06 bitrate=N/A speed=20.2x    frame=14781 fps=486 q=-0.0 size=N/A time=00:10:16.49 bitrate=N/A speed=20.3x    frame=15054 fps=486 q=-0.0 size=N/A time=00:10:27.87 bitrate=N/A speed=20.3x    frame=15312 fps=486 q=-0.0 size=N/A time=00:10:38.63 bitrate=N/A speed=20.3x    frame=15507 fps=485 q=-0.0 size=N/A time=00:10:46.77 bitrate=N/A speed=20.2x    frame=15762 fps=485 q=-0.0 size=N/A time=00:10:57.40 bitrate=N/A speed=20.2x    frame=16008 fps=485 q=-0.0 size=N/A time=00:11:07.66 bitrate=N/A speed=20.2x    frame=16271 fps=485 q=-0.0 size=N/A time=00:11:18.63 bitrate=N/A speed=20.2x    frame=16543 fps=486 q=-0.0 size=N/A time=00:11:29.98 bitrate=N/A speed=20.3x    frame=16816 fps=486 q=-0.0 size=N/A time=00:11:41.36 bitrate=N/A speed=20.3x    frame=17062 fps=486 q=-0.0 size=N/A time=00:11:51.62 bitrate=N/A speed=20.3x    frame=17333 fps=487 q=-0.0 size=N/A time=00:12:02.93 bitrate=N/A speed=20.3x    frame=17599 fps=487 q=-0.0 size=N/A time=00:12:14.02 bitrate=N/A speed=20.3x    frame=17841 fps=487 q=-0.0 size=N/A time=00:12:24.11 bitrate=N/A speed=20.3x    frame=18083 fps=487 q=-0.0 size=N/A time=00:12:34.21 bitrate=N/A speed=20.3x    frame=18355 fps=487 q=-0.0 size=N/A time=00:12:45.55 bitrate=N/A speed=20.3x    frame=18622 fps=488 q=-0.0 size=N/A time=00:12:56.69 bitrate=N/A speed=20.3x    frame=18877 fps=488 q=-0.0 size=N/A time=00:13:07.32 bitrate=N/A speed=20.3x    frame=19146 fps=488 q=-0.0 size=N/A time=00:13:18.54 bitrate=N/A speed=20.4x    frame=19410 fps=489 q=-0.0 size=N/A time=00:13:29.55 bitrate=N/A speed=20.4x    frame=19666 fps=489 q=-0.0 size=N/A time=00:13:40.23 bitrate=N/A speed=20.4x    frame=19934 fps=489 q=-0.0 size=N/A time=00:13:51.41 bitrate=N/A speed=20.4x    frame=20193 fps=489 q=-0.0 size=N/A time=00:14:02.21 bitrate=N/A speed=20.4x    frame=20481 fps=490 q=-0.0 size=N/A time=00:14:14.22 bitrate=N/A speed=20.4x    frame=20727 fps=490 q=-0.0 size=N/A time=00:14:24.48 bitrate=N/A speed=20.4x    frame=20990 fps=490 q=-0.0 size=N/A time=00:14:35.45 bitrate=N/A speed=20.4x    frame=21250 fps=490 q=-0.0 size=N/A time=00:14:46.30 bitrate=N/A speed=20.5x    frame=21534 fps=491 q=-0.0 size=N/A time=00:14:58.14 bitrate=N/A speed=20.5x    frame=21811 fps=492 q=-0.0 size=N/A time=00:15:09.70 bitrate=N/A speed=20.5x    frame=22086 fps=492 q=-0.0 size=N/A time=00:15:21.17 bitrate=N/A speed=20.5x    frame=22358 fps=492 q=-0.0 size=N/A time=00:15:32.51 bitrate=N/A speed=20.5x    frame=22604 fps=492 q=-0.0 size=N/A time=00:15:42.77 bitrate=N/A speed=20.5x    frame=22876 fps=493 q=-0.0 size=N/A time=00:15:54.11 bitrate=N/A speed=20.5x    frame=23133 fps=493 q=-0.0 size=N/A time=00:16:04.83 bitrate=N/A speed=20.5x    frame=23396 fps=493 q=-0.0 size=N/A time=00:16:15.80 bitrate=N/A speed=20.6x    frame=23647 fps=493 q=-0.0 size=N/A time=00:16:26.27 bitrate=N/A speed=20.6x    frame=23924 fps=493 q=-0.0 size=N/A time=00:16:37.83 bitrate=N/A speed=20.6x    frame=24192 fps=494 q=-0.0 size=N/A time=00:16:49.00 bitrate=N/A speed=20.6x    frame=24463 fps=494 q=-0.0 size=N/A time=00:17:00.31 bitrate=N/A speed=20.6x    frame=24709 fps=494 q=-0.0 size=N/A time=00:17:10.57 bitrate=N/A speed=20.6x    frame=24968 fps=494 q=-0.0 size=N/A time=00:17:21.37 bitrate=N/A speed=20.6x    frame=25235 fps=494 q=-0.0 size=N/A time=00:17:32.50 bitrate=N/A speed=20.6x    frame=25486 fps=494 q=-0.0 size=N/A time=00:17:42.97 bitrate=N/A speed=20.6x    frame=25740 fps=494 q=-0.0 size=N/A time=00:17:53.57 bitrate=N/A speed=20.6x    frame=25966 fps=493 q=-0.0 size=N/A time=00:18:02.99 bitrate=N/A speed=20.6x    frame=26230 fps=494 q=-0.0 size=N/A time=00:18:14.00 bitrate=N/A speed=20.6x    frame=26497 fps=494 q=-0.0 size=N/A time=00:18:25.14 bitrate=N/A speed=20.6x    frame=26777 fps=494 q=-0.0 size=N/A time=00:18:36.82 bitrate=N/A speed=20.6x    frame=27038 fps=495 q=-0.0 size=N/A time=00:18:47.70 bitrate=N/A speed=20.6x    frame=27318 fps=495 q=-0.0 size=N/A time=00:18:59.38 bitrate=N/A speed=20.6x    frame=27588 fps=495 q=-0.0 size=N/A time=00:19:10.64 bitrate=N/A speed=20.7x    frame=27838 fps=495 q=-0.0 size=N/A time=00:19:21.07 bitrate=N/A speed=20.6x    frame=28105 fps=495 q=-0.0 size=N/A time=00:19:32.21 bitrate=N/A speed=20.7x    frame=28383 fps=496 q=-0.0 size=N/A time=00:19:43.80 bitrate=N/A speed=20.7x    frame=28635 fps=496 q=-0.0 size=N/A time=00:19:54.31 bitrate=N/A speed=20.7x    frame=28890 fps=495 q=-0.0 size=N/A time=00:20:04.95 bitrate=N/A speed=20.7x    frame=29166 fps=496 q=-0.0 size=N/A time=00:20:16.46 bitrate=N/A speed=20.7x    frame=29434 fps=496 q=-0.0 size=N/A time=00:20:27.64 bitrate=N/A speed=20.7x    frame=29697 fps=496 q=-0.0 size=N/A time=00:20:38.61 bitrate=N/A speed=20.7x    frame=29969 fps=496 q=-0.0 size=N/A time=00:20:49.95 bitrate=N/A speed=20.7x    frame=30239 fps=497 q=-0.0 size=N/A time=00:21:01.21 bitrate=N/A speed=20.7x    frame=30513 fps=497 q=-0.0 size=N/A time=00:21:12.64 bitrate=N/A speed=20.7x    frame=30769 fps=497 q=-0.0 size=N/A time=00:21:23.32 bitrate=N/A speed=20.7x    frame=31014 fps=497 q=-0.0 size=N/A time=00:21:33.54 bitrate=N/A speed=20.7x    frame=31259 fps=497 q=-0.0 size=N/A time=00:21:43.76 bitrate=N/A speed=20.7x    frame=31530 fps=497 q=-0.0 size=N/A time=00:21:55.06 bitrate=N/A speed=20.7x    frame=31776 fps=497 q=-0.0 size=N/A time=00:22:05.32 bitrate=N/A speed=20.7x    frame=32015 fps=496 q=-0.0 size=N/A time=00:22:15.29 bitrate=N/A speed=20.7x    frame=32259 fps=496 q=-0.0 size=N/A time=00:22:25.46 bitrate=N/A speed=20.7x    frame=32498 fps=496 q=-0.0 size=N/A time=00:22:35.43 bitrate=N/A speed=20.7x    frame=32767 fps=496 q=-0.0 size=N/A time=00:22:46.65 bitrate=N/A speed=20.7x    frame=33002 fps=496 q=-0.0 size=N/A time=00:22:56.45 bitrate=N/A speed=20.7x    frame=33273 fps=496 q=-0.0 size=N/A time=00:23:07.76 bitrate=N/A speed=20.7x    frame=33541 fps=496 q=-0.0 size=N/A time=00:23:18.93 bitrate=N/A speed=20.7x    frame=33787 fps=496 q=-0.0 size=N/A time=00:23:29.19 bitrate=N/A speed=20.7x    frame=34044 fps=496 q=-0.0 size=N/A time=00:23:39.91 bitrate=N/A speed=20.7x    frame=34309 fps=496 q=-0.0 size=N/A time=00:23:50.97 bitrate=N/A speed=20.7x    [Parsed_psnr_10 @ 000002558ccca540] PSNR y:49.090183 u:50.812885 v:51.204090 average:49.639453 min:40.248426 max:inf
[out#0/null @ 000002558c35ffc0] video:14748KiB audio:268444KiB subtitle:0KiB other streams:0KiB global headers:0KiB muxing overhead: unknown
frame=34323 fps=496 q=-0.0 Lsize=N/A time=00:23:51.55 bitrate=N/A speed=20.7x    
